mtllib branch.mtl
o Branch
v 0.0 0.0 0.0
v 0.1 0.0 0.0
v 0.1 0.0 0.1
v 0.0 0.0 0.1
v 0.05 1.0 0.05
v 0.0 0.5 0.0
v 0.1 0.5 0.0
v 0.1 0.5 0.1
v 0.0 0.5 0.1
vn 0.0 -1.0 0.0
vn 0.0 1.0 0.0
vn -1.0 0.0 0.0
vn 1.0 0.0 0.0
vn 0.0 0.0 -1.0
vn 0.0 0.0 1.0
usemtl Material_Branch
f 1//1 2//1 3//1
f 1//1 3//1 4//1
f 1//3 4//3 8//3
f 1//3 8//3 6//3
f 2//4 7//4 3//4
f 7//4 8//4 3//4
f 4//6 3//6 8//6
f 1//5 6//5 7//5
f 1//5 7//5 2//5
f 6//3 8//3 5//3
f 7//4 5//4 8//4
f 8//6 5//6 9//6
f 6//5 5//5 7//5
f 5//2 9//2 5//2